<!--?xml version="1.0" standalone="no"?-->
              <svg id="sw-js-blob-svg" viewBox="0 0 100 100" xmlns="http://www.w3.org/2000/svg" version="1.1">
                    <defs> 
                        <linearGradient id="sw-gradient" x1="0" x2="1" y1="1" y2="0">
                            <stop id="stop1" stop-color="rgba(248, 117, 55, 1)" offset="0%"></stop>
                            <stop id="stop2" stop-color="rgba(251, 168, 31, 1)" offset="100%"></stop>
                        </linearGradient>
                    </defs>
                <path fill="url(#sw-gradient)" d="M22.9,-36.1C27.9,-32.3,29.2,-23.1,32.8,-15C36.3,-7,42.1,0,41.6,6.2C41.1,12.5,34.3,18.2,27.6,21.6C21,25,14.5,26.2,8.1,28.6C1.7,31,-4.7,34.5,-10.1,33.4C-15.5,32.3,-19.9,26.7,-26.2,21.5C-32.6,16.4,-40.8,11.7,-40.8,6.4C-40.7,1,-32.4,-5,-26.5,-9.7C-20.5,-14.4,-17.1,-17.7,-13,-22C-9,-26.3,-4.5,-31.6,2.2,-35C8.9,-38.4,17.8,-40,22.9,-36.1Z" width="100%" height="100%" transform="translate(50 50)" stroke-width="0" style="transition: 0.3s;"></path>
              </svg>